<svg width="108" height="110" viewBox="0 0 108 110" fill="none" xmlns="http://www.w3.org/2000/svg">
<path d="M54.0002 0C39.3345 0 37.4955 0.0633682 31.7358 0.330923C25.9881 0.597986 22.0627 1.52788 18.6278 2.88726C15.0769 4.29283 12.0654 6.17357 9.06345 9.23113C6.06132 12.2887 4.21478 15.3562 2.83493 18.973C1.49994 22.4713 0.587275 26.4694 0.324745 32.3235C0.0620553 38.1899 0 40.0629 0 55.0002C0 69.937 0.0620553 71.8101 0.324745 77.6765C0.587275 83.5306 1.49994 87.5287 2.83493 91.027C4.21494 94.6438 6.06148 97.711 9.06345 100.769C12.0656 103.826 15.0769 105.707 18.6278 107.113C22.0627 108.472 25.9881 109.402 31.7358 109.669C37.4955 109.937 39.3345 110 54.0002 110C68.6655 110 70.5045 109.937 76.2642 109.669C82.0118 109.402 85.9372 108.472 89.372 107.113C92.923 105.707 95.9344 103.826 98.9367 100.769C101.939 97.711 103.785 94.6438 105.165 91.027C106.5 87.5287 107.413 83.5306 107.675 77.6765C107.938 71.8101 108 69.937 108 55.0002C108 40.0629 107.938 38.1899 107.675 32.3235C107.413 26.4694 106.5 22.4713 105.165 18.973C103.785 15.3562 101.939 12.2887 98.9367 9.23113C95.9344 6.17357 92.923 4.29283 89.372 2.88726C85.9372 1.52788 82.0118 0.597986 76.2642 0.330923C70.5045 0.0633682 68.6655 0 54.0002 0ZM54.0002 9.90984C68.4185 9.90984 70.1265 9.966 75.8206 10.2306C81.0857 10.4751 83.9449 11.3711 85.8475 12.1243C88.3683 13.1221 90.1671 14.3138 92.0566 16.2385C93.9464 18.1631 95.1164 19.9954 96.0961 22.5625C96.8357 24.5006 97.7154 27.4129 97.9554 32.7753C98.2152 38.5749 98.2703 40.3145 98.2703 55C98.2703 69.6855 98.2152 71.4251 97.9554 77.2247C97.7154 82.5873 96.8357 85.4994 96.0961 87.4373C95.1164 90.0048 93.9464 91.8369 92.0566 93.7614C90.1671 95.6862 88.3682 96.8779 85.8477 97.8757C83.9449 98.6289 81.0855 99.5249 75.8206 99.7694C70.1275 100.034 68.4197 100.09 54 100.09C39.5803 100.09 37.8729 100.034 32.1794 99.7692C26.9143 99.5249 24.0551 98.6289 22.1525 97.8757C19.6317 96.8779 17.8329 95.6862 15.9434 93.7614C14.0538 91.8369 12.8835 90.0046 11.9038 87.4375C11.1643 85.4994 10.2848 82.5871 10.0446 77.2247C9.7848 71.4251 9.72966 69.6855 9.72966 55C9.72966 40.3145 9.7848 38.5749 10.0446 32.7753C10.2848 27.4127 11.1643 24.5006 11.9038 22.5627C12.8835 19.9952 14.0538 18.1631 15.9432 16.2386C17.8329 14.3138 19.6318 13.1221 22.1523 12.1243C24.0551 11.3711 26.9145 10.4751 32.1794 10.2306C37.8735 9.966 39.5815 9.90984 54 9.90984" fill="#100F0D"/>
<path d="M54.0033 73.3317C44.0619 73.3317 36.0031 65.1236 36.0031 54.9985C36.0031 44.873 44.0619 36.6649 54.0033 36.6649C63.9444 36.6649 72.0032 44.873 72.0032 54.9985C72.0032 65.1236 63.9444 73.3317 54.0033 73.3317ZM54.0033 26.7551C38.6884 26.7551 26.2734 39.3999 26.2734 54.9985C26.2734 70.5967 38.6884 83.2415 54.0033 83.2415C69.3179 83.2415 81.7329 70.5967 81.7329 54.9985C81.7329 39.3999 69.3179 26.7551 54.0033 26.7551V26.7551ZM89.3086 25.6392C89.3086 29.2844 86.4073 32.2391 82.8285 32.2391C79.2498 32.2391 76.3485 29.2844 76.3485 25.6392C76.3485 21.9941 79.2498 19.0391 82.8285 19.0391C86.4073 19.0391 89.3086 21.9941 89.3086 25.6392" fill="#100F0D"/>
</svg>
